<svg width="178" height="42" viewBox="0 0 178 42" fill="none" xmlns="http://www.w3.org/2000/svg">
<g filter="url(#filter0_d)">
<path d="M18.8853 4.19951C19.2265 4.1393 19.5978 4.16941 19.9993 4.28984C20.4007 4.41027 20.8022 4.59092 21.2036 4.83178C21.605 5.05258 21.9764 5.31351 22.3176 5.61459C22.6789 5.91568 22.98 6.21675 23.2208 6.51783C23.4617 6.81891 23.6323 7.09992 23.7327 7.36086C23.833 7.60173 23.823 7.79241 23.7026 7.93292C23.6423 7.99313 23.4416 8.43472 23.1004 9.25767C22.7793 10.0606 22.3678 11.1043 21.866 12.3889C21.3842 13.6534 20.8423 15.0986 20.2401 16.7245C19.658 18.3302 19.076 19.9661 18.4939 21.6321C17.9319 23.2981 17.3999 24.9239 16.8981 26.5096C16.4164 28.0752 16.025 29.4702 15.7239 30.6946C15.4429 31.8989 15.2823 32.8624 15.2422 33.585C15.2221 34.2875 15.3927 34.6087 15.754 34.5484C16.5168 34.4079 17.3096 33.8459 18.1326 32.8624C18.9555 31.8588 19.8186 30.5842 20.7219 29.0387C21.6251 27.4931 22.5685 25.7569 23.552 23.83C24.5356 21.883 25.5693 19.8958 26.6532 17.8686C27.737 15.8212 28.8711 13.804 30.0554 11.8169C31.2396 9.82972 32.474 8.02324 33.7587 6.3974C35.0633 4.77157 36.4282 3.40667 37.8533 2.30271C39.2785 1.17867 40.7638 0.456081 42.3093 0.134927C43.3932 -0.0858634 44.2664 -0.0356829 44.9287 0.285468C45.6112 0.606621 46.1331 1.0181 46.4944 1.5199C46.8557 2.0217 47.0965 2.5235 47.217 3.0253C47.3575 3.50703 47.4277 3.81815 47.4277 3.95865C47.4678 4.21959 47.3976 4.41027 47.217 4.5307C47.0564 4.65114 46.685 4.66117 46.103 4.56081C44.8786 4.38016 43.6742 4.58088 42.49 5.16297C41.3258 5.74506 40.1717 6.58809 39.0276 7.69205C37.8835 8.79601 36.7494 10.1208 35.6254 11.6663C34.5013 13.2119 33.3873 14.8578 32.2834 16.604C31.1995 18.3503 30.1156 20.1568 29.0317 22.0235C27.9478 23.8701 26.8639 25.6766 25.78 27.4429C24.7162 29.1892 23.6423 30.8351 22.5585 32.3807C21.4746 33.9061 20.3907 35.2309 19.3068 36.3549C18.2229 37.4589 17.129 38.3019 16.025 38.884C14.9411 39.4661 13.8472 39.6768 12.7432 39.5163C11.8801 39.3958 11.2278 38.9844 10.7862 38.2818C10.3647 37.5994 10.0837 36.7363 9.94318 35.6925C9.80268 34.6287 9.79264 33.4545 9.91308 32.1699C10.0335 30.8652 10.2142 29.5405 10.455 28.1956C11.0371 25.0443 11.9905 21.5217 13.3153 17.6277L17.3197 10.5222C15.6738 12.7101 14.078 14.6771 12.5325 16.4234C11.8701 17.1661 11.1776 17.8987 10.455 18.6213C9.7525 19.3439 9.04998 19.9962 8.34746 20.5783C7.66501 21.1604 7.00263 21.6421 6.36033 22.0235C5.71802 22.3848 5.13593 22.5855 4.61406 22.6256C3.89147 22.6859 3.26923 22.6357 2.74736 22.4751C2.24556 22.2945 1.81401 22.0837 1.45271 21.8428C1.11149 21.5819 0.83048 21.331 0.609688 21.0901C0.408968 20.8493 0.258427 20.6787 0.158067 20.5783C0.0577071 20.498 0.00752701 20.3976 0.00752701 20.2772C-0.012545 20.1367 0.00752701 20.0062 0.0677431 19.8858C0.127959 19.7654 0.198211 19.665 0.278499 19.5847C0.37886 19.4844 0.47922 19.4141 0.57958 19.374C1.94448 18.7718 3.29934 17.989 4.64417 17.0255C5.98899 16.0621 7.28364 15.0284 8.52811 13.9244C9.79264 12.8205 10.9869 11.7065 12.111 10.5824C13.235 9.43832 14.2486 8.40461 15.1519 7.48129C16.0551 6.55798 16.8279 5.79524 17.4702 5.19308C18.1125 4.59092 18.5842 4.25973 18.8853 4.19951Z" fill="#D61111"/>
<path d="M39.0118 20.7589C39.0319 20.6385 39.1623 20.5783 39.4032 20.5783C39.6641 20.5783 39.9652 20.6184 40.3064 20.6987C40.6477 20.779 40.9989 20.9095 41.3602 21.0901C41.7416 21.2507 42.0628 21.4615 42.3237 21.7224C42.6047 21.9633 42.7853 22.2443 42.8656 22.5654C42.966 22.8665 42.9158 23.1977 42.7151 23.559C42.1129 24.6429 41.5409 25.787 40.9989 26.9913C40.4771 28.1956 40.0355 29.2996 39.6742 30.3032C39.3129 31.2867 39.0519 32.0996 38.8914 32.742C38.7308 33.3843 38.7107 33.6954 38.8312 33.6753C39.0319 33.6352 39.2928 33.4545 39.614 33.1334C39.9552 32.7921 40.3064 32.3907 40.6677 31.929C41.029 31.4674 41.4004 30.9756 41.7817 30.4537C42.1631 29.9118 42.5144 29.42 42.8355 28.9784C43.1567 28.5369 43.4277 28.1756 43.6484 27.8946C43.8692 27.5935 44.0097 27.4429 44.07 27.4429C44.1502 27.4429 44.2707 27.463 44.4313 27.5032C44.6119 27.5433 44.7725 27.6135 44.913 27.7139C45.0736 27.8143 45.184 27.9548 45.2442 28.1354C45.3245 28.296 45.3245 28.5068 45.2442 28.7677C45.184 28.9483 45.0234 29.3096 44.7624 29.8516C44.5015 30.3735 44.1603 30.9756 43.7388 31.6581C43.3173 32.3405 42.8355 33.043 42.2936 33.7656C41.7717 34.4681 41.2097 35.0904 40.6075 35.6323C40.0054 36.1743 39.3731 36.5858 38.7107 36.8668C38.0684 37.1478 37.4361 37.1779 36.8139 36.9571C36.4526 36.8366 36.1616 36.666 35.9408 36.4452C35.72 36.2044 35.5393 35.9635 35.3988 35.7227C35.2784 35.4818 35.1881 35.251 35.1279 35.0302C35.0877 34.8094 35.0576 34.6488 35.0375 34.5484C34.9974 34.2674 35.0375 33.8861 35.158 33.4043C34.4755 34.5886 33.783 35.5219 33.0805 36.2044C32.3981 36.8868 31.6654 37.1377 30.8826 36.9571C30.1199 36.7764 29.5478 36.5356 29.1665 36.2345C28.7851 35.9133 28.5242 35.5621 28.3837 35.1807C28.2231 34.7993 28.1528 34.3979 28.1729 33.9764C28.1729 33.5549 28.193 33.1534 28.2331 32.7721C28.2733 31.9893 28.3937 31.1061 28.5944 30.1226C28.7951 29.1189 29.0661 28.1254 29.4073 27.1419C29.7686 26.1583 30.1901 25.2149 30.6719 24.3117C31.1737 23.4085 31.7457 22.6457 32.388 22.0235C33.0303 21.4013 33.7429 20.9597 34.5257 20.6987C35.3286 20.4378 36.2017 20.4478 37.1451 20.7288C37.6068 20.8894 37.9279 21.1403 38.1086 21.4815C38.2892 21.8027 38.3996 22.164 38.4397 22.5654L39.0118 20.7589ZM37.1752 23.1074C36.8942 23.0472 36.553 23.2579 36.1515 23.7396C35.7702 24.2214 35.3788 24.8336 34.9773 25.5762C34.5759 26.3189 34.1945 27.1419 33.8332 28.0451C33.492 28.9283 33.221 29.7412 33.0203 30.4838C32.8196 31.2265 32.7192 31.8287 32.7192 32.2903C32.7393 32.752 32.9099 32.9427 33.2311 32.8624C33.6526 32.762 34.064 32.4609 34.4655 31.9591C34.887 31.4573 35.2784 30.8552 35.6397 30.1527C36.0211 29.4501 36.3523 28.6974 36.6333 27.8946C36.9343 27.0917 37.1652 26.349 37.3257 25.6666C37.4863 24.9841 37.5566 24.402 37.5365 23.9203C37.5365 23.4386 37.4161 23.1676 37.1752 23.1074Z" fill="#D61111"/>
<path d="M51.17 20.7288C51.4511 20.8292 51.6819 20.9697 51.8625 21.1504C52.0432 21.331 52.1837 21.5317 52.284 21.7525C52.3643 20.5683 52.3944 19.4844 52.3744 18.5008C52.3744 17.4972 52.3543 16.6442 52.3141 15.9417C52.274 15.2391 52.2439 14.6872 52.2238 14.2857C52.2038 13.8843 52.2439 13.6836 52.3443 13.6836C52.3844 13.6836 52.5952 13.7137 52.9765 13.7739C53.378 13.814 53.8095 13.9144 54.2712 14.075C54.7529 14.2155 55.2045 14.4162 55.626 14.6771C56.0476 14.9381 56.3085 15.2692 56.4089 15.6707C56.7501 16.9553 56.8705 18.3603 56.7701 19.8858C56.6698 21.4113 56.4289 22.9468 56.0476 24.4923C55.6863 26.0178 55.2246 27.5032 54.6626 28.9483C54.1006 30.3935 53.5385 31.6882 52.9765 32.8323L52.8561 33.043C52.7357 33.5047 52.7357 33.7154 52.8561 33.6753C53.0568 33.6352 53.3178 33.4545 53.6389 33.1334C53.9801 32.7921 54.3314 32.3907 54.6927 31.929C55.054 31.4674 55.4253 30.9756 55.8067 30.4537C56.1881 29.9118 56.5393 29.42 56.8605 28.9784C57.1816 28.5369 57.4526 28.1756 57.6734 27.8946C57.8942 27.5935 58.0347 27.4429 58.0949 27.4429C58.1752 27.4429 58.2956 27.463 58.4562 27.5032C58.6368 27.5433 58.7974 27.6135 58.9379 27.7139C59.0985 27.8143 59.2089 27.9548 59.2691 28.1354C59.3494 28.296 59.3494 28.5068 59.2691 28.7677C59.2089 28.9483 59.0483 29.3096 58.7874 29.8516C58.5265 30.3735 58.1852 30.9756 57.7637 31.6581C57.3422 32.3405 56.8605 33.043 56.3185 33.7656C55.7967 34.4681 55.2346 35.0904 54.6325 35.6323C54.0303 36.1743 53.398 36.5858 52.7357 36.8668C52.0934 37.1478 51.4611 37.1779 50.8389 36.9571C50.4776 36.8366 50.1865 36.666 49.9657 36.4452C49.7449 36.2044 49.5643 35.9635 49.4238 35.7227C49.3033 35.4818 49.213 35.251 49.1528 35.0302C49.1127 34.8094 49.0826 34.6488 49.0625 34.5484C49.0223 34.2674 49.0625 33.8861 49.1829 33.4043C48.5005 34.5886 47.808 35.5219 47.1055 36.2044C46.423 36.8868 45.6904 37.1377 44.9076 36.9571C44.1448 36.7764 43.5728 36.5356 43.1914 36.2345C42.81 35.9133 42.5491 35.5621 42.4086 35.1807C42.248 34.7993 42.1778 34.3979 42.1978 33.9764C42.1978 33.5549 42.2179 33.1534 42.2581 32.7721C42.2982 31.9893 42.4186 31.1061 42.6194 30.1226C42.8201 29.1189 43.091 28.1254 43.4323 27.1419C43.7936 26.1583 44.2151 25.2149 44.6968 24.3117C45.1986 23.4085 45.7707 22.6457 46.413 22.0235C47.0553 21.4013 47.7678 20.9597 48.5506 20.6987C49.3535 20.4378 50.2267 20.4478 51.17 20.7288ZM51.17 23.1074C50.889 23.0472 50.5478 23.2579 50.1464 23.7396C49.7449 24.2214 49.3435 24.8336 48.9421 25.5762C48.5607 26.3189 48.1893 27.1419 47.8281 28.0451C47.4668 28.9283 47.1857 29.7412 46.985 30.4838C46.8044 31.2265 46.7141 31.8287 46.7141 32.2903C46.7141 32.752 46.8746 32.9427 47.1958 32.8624C47.6173 32.762 48.0388 32.4609 48.4603 31.9591C48.8818 31.4573 49.2732 30.8552 49.6345 30.1527C50.0159 29.4501 50.3471 28.6974 50.6281 27.8946C50.9292 27.0917 51.15 26.349 51.2905 25.6666C51.4511 24.9841 51.5213 24.402 51.5012 23.9203C51.5012 23.4386 51.3908 23.1676 51.17 23.1074Z" fill="#D61111"/>
<path d="M68.29 20.217C68.8922 20.0966 69.3639 20.1769 69.7051 20.4579C70.0664 20.7389 70.3273 21.0901 70.4879 21.5116C70.6485 21.9131 70.7388 22.3246 70.7589 22.7461C70.7789 23.1676 70.7589 23.4586 70.6986 23.6192C70.6384 23.7597 70.4678 24.1009 70.1868 24.6429C69.9058 25.1648 69.5746 25.787 69.1932 26.5096C68.8319 27.2121 68.4506 27.9548 68.0491 28.7376C67.6678 29.5204 67.3466 30.243 67.0857 30.9054C66.8247 31.5477 66.6642 32.0796 66.604 32.5011C66.5437 32.9226 66.6441 33.1233 66.905 33.1033C67.0857 33.0832 67.3767 32.9126 67.7782 32.5914C68.1997 32.2703 68.6613 31.8287 69.1631 31.2667C69.6649 30.7046 70.1768 30.0523 70.6986 29.3096C71.2406 28.5469 71.7123 27.7239 72.1137 26.8408C72.1739 26.7203 72.2643 26.7203 72.3847 26.8408C72.5252 26.9612 72.6657 27.1419 72.8062 27.3827C72.9467 27.6035 73.0571 27.8343 73.1374 28.0752C73.2378 28.3161 73.2679 28.4967 73.2277 28.6171C72.6256 30.1828 71.8729 31.5176 70.9696 32.6215C70.0664 33.7054 69.1631 34.5886 68.2599 35.271C67.3767 35.9334 66.5738 36.4252 65.8512 36.7463C65.1287 37.0474 64.6469 37.1979 64.4061 37.1979C64.0247 37.1979 63.6634 37.0374 63.3222 36.7162C62.981 36.3951 62.7501 35.9735 62.6297 35.4517C62.5093 34.8696 62.4992 34.1871 62.5996 33.4043C62.72 32.6215 62.8906 31.8186 63.1114 30.9957C63.3322 30.1527 63.5731 29.3297 63.834 28.5268C64.115 27.7239 64.3559 27.0013 64.5566 26.359C64.7774 25.7167 64.9279 25.1949 65.0082 24.7934C65.0885 24.392 65.0584 24.1812 64.9179 24.1612C64.4964 24.2615 64.0347 24.5225 63.5329 24.944C63.0512 25.3655 62.5695 25.8773 62.0877 26.4795C61.606 27.0816 61.1343 27.734 60.6727 28.4365C60.2311 29.1189 59.8296 29.7713 59.4683 30.3935C59.2476 31.3168 59.0769 32.1799 58.9565 32.9828C58.8561 33.7857 58.7859 34.4882 58.7458 35.0904C58.7257 35.6725 58.7156 36.1442 58.7156 36.5055C58.7156 36.8467 58.7156 37.0273 58.7156 37.0474C58.6554 37.1277 58.5149 37.1779 58.2941 37.1979C58.0733 37.218 57.8224 37.1979 57.5414 37.1377C57.2604 37.0976 56.9794 37.0273 56.6984 36.927C56.4174 36.8065 56.1866 36.656 56.0059 36.4753C55.7651 36.2546 55.6045 35.7728 55.5242 35.0302C55.464 34.2875 55.484 33.4043 55.5844 32.3807C55.6848 31.357 55.8755 30.2631 56.1565 29.0989C56.4575 27.9146 56.859 26.7605 57.3608 25.6364C59.107 21.8228 60.492 18.7718 61.5157 16.4836C62.5594 14.1753 63.1315 12.6599 63.2319 11.9373C63.2519 11.7566 63.4526 11.6864 63.834 11.7265C64.2154 11.7466 64.6068 11.8971 65.0082 12.1781C65.4097 12.4592 65.7308 12.8807 65.9717 13.4427C66.2326 14.0047 66.2527 14.7173 66.0319 15.5804C65.8312 16.3832 65.5803 17.1359 65.2792 17.8385C64.9982 18.541 64.6871 19.2335 64.3458 19.9159C64.0046 20.5783 63.6333 21.2708 63.2319 21.9934C62.8304 22.6959 62.4189 23.4486 61.9974 24.2515C62.4591 23.7698 62.9508 23.3081 63.4727 22.8665C64.0147 22.4249 64.5566 22.0235 65.0986 21.6622C65.6405 21.3009 66.1824 20.9998 66.7244 20.7589C67.2663 20.498 67.7882 20.3174 68.29 20.217ZM58.0232 33.2839C58.0232 33.2438 58.0332 33.2036 58.0533 33.1635C58.0131 33.2638 57.983 33.324 57.9629 33.3441C57.9629 33.3642 57.983 33.3541 58.0232 33.314V33.2839Z" fill="#D61111"/>
<path d="M81.7405 20.7589C81.7807 20.6586 81.9312 20.6084 82.1922 20.6084C82.4531 20.5883 82.7542 20.6285 83.0954 20.7288C83.4567 20.8091 83.818 20.9396 84.1793 21.1202C84.5406 21.2808 84.8517 21.4815 85.1126 21.7224C85.3736 21.9633 85.5442 22.2443 85.6245 22.5654C85.7248 22.8665 85.6747 23.1977 85.4739 23.559C84.8517 24.6429 84.2797 25.787 83.7578 26.9913C83.2359 28.1956 82.7943 29.2996 82.433 30.3032C82.0717 31.2867 81.8008 32.0996 81.6201 32.742C81.4595 33.3843 81.4395 33.6954 81.5599 33.6753C81.7606 33.6352 82.0215 33.4545 82.3427 33.1334C82.6839 32.7921 83.0352 32.3907 83.3965 31.929C83.7578 31.4674 84.1291 30.9756 84.5105 30.4537C84.8919 29.9118 85.2431 29.42 85.5643 28.9784C85.8854 28.5369 86.1564 28.1756 86.3772 27.8946C86.598 27.5935 86.7385 27.4429 86.7987 27.4429C86.879 27.4429 86.9994 27.463 87.16 27.5032C87.3406 27.5433 87.5012 27.6135 87.6417 27.7139C87.8023 27.8143 87.9227 27.9548 88.003 28.1354C88.0833 28.296 88.0833 28.5068 88.003 28.7677C87.9428 28.9483 87.7822 29.3096 87.5213 29.8516C87.2603 30.3735 86.9191 30.9756 86.4976 31.6581C86.0761 32.3405 85.5944 33.043 85.0524 33.7656C84.5306 34.4681 83.9585 35.0904 83.3363 35.6323C82.7341 36.1743 82.1119 36.5858 81.4696 36.8668C80.8273 37.1478 80.195 37.1779 79.5728 36.9571C79.2115 36.8366 78.9204 36.666 78.6996 36.4452C78.4788 36.2044 78.2982 35.9635 78.1577 35.7227C78.0372 35.4818 77.9469 35.251 77.8867 35.0302C77.8265 34.8094 77.7863 34.6488 77.7663 34.5484V34.1269C77.8466 33.9864 78.0071 33.7255 78.248 33.3441C78.5089 32.9427 78.6896 32.5412 78.7899 32.1398C78.7899 32.1197 78.7699 32.1298 78.7297 32.1699C78.3082 32.8122 77.8365 33.4645 77.3147 34.1269C76.7928 34.7692 76.2408 35.3413 75.6587 35.8431C75.0967 36.3248 74.5146 36.6861 73.9124 36.927C73.3103 37.1478 72.7081 37.1578 72.106 36.9571C71.7447 36.8366 71.4536 36.666 71.2328 36.4452C71.012 36.2044 70.8414 35.9635 70.721 35.7227C70.5805 35.4818 70.4902 35.251 70.45 35.0302C70.3898 34.8094 70.3497 34.6488 70.3296 34.5484C70.2694 34.1671 70.3095 33.605 70.45 32.8624C70.5704 32.0996 70.7511 31.2566 70.992 30.3333C71.2529 29.3899 71.5439 28.4164 71.8651 27.4128C72.2063 26.4092 72.5275 25.4658 72.8286 24.5827C73.1497 23.6794 73.4408 22.8866 73.7017 22.2041C73.9626 21.5217 74.1633 21.04 74.3038 20.7589C74.344 20.6586 74.4945 20.6084 74.7555 20.6084C75.0164 20.5883 75.3175 20.6285 75.6587 20.7288C76.02 20.8091 76.3813 20.9396 76.7426 21.1202C77.1039 21.2808 77.405 21.4815 77.6458 21.7224C77.9068 21.9633 78.0774 22.2443 78.1577 22.5654C78.258 22.8665 78.2079 23.1977 78.0071 23.559C77.405 24.6429 76.8329 25.787 76.291 26.9913C75.7691 28.1956 75.3275 29.2996 74.9662 30.3032C74.6049 31.2867 74.344 32.0996 74.1834 32.742C74.0228 33.3843 74.0028 33.6954 74.1232 33.6753C74.4042 33.6151 74.7856 33.3441 75.2673 32.8624C75.7691 32.3807 76.2709 31.8287 76.7727 31.2064C77.2946 30.5842 77.7763 29.9519 78.2179 29.3096C78.6796 28.6673 79.0107 28.1655 79.2115 27.8042C79.4523 27.0214 79.6932 26.2587 79.9341 25.516C80.195 24.7734 80.4359 24.0909 80.6566 23.4687C80.8975 22.8264 81.1083 22.2744 81.2889 21.8127C81.4896 21.331 81.6402 20.9797 81.7405 20.7589Z" fill="#D61111"/>
<path d="M104.123 4.19951C104.464 4.1393 104.835 4.16941 105.237 4.28984C105.638 4.41027 106.04 4.59092 106.441 4.83178C106.843 5.05258 107.214 5.31351 107.555 5.61459C107.916 5.91568 108.218 6.21675 108.458 6.51783C108.699 6.81891 108.87 7.09992 108.97 7.36086C109.071 7.60173 109.061 7.79241 108.94 7.93292C108.88 7.99313 108.679 8.43472 108.338 9.25767C108.017 10.0606 107.605 11.1043 107.104 12.3889C106.622 13.6534 106.08 15.0986 105.478 16.7245C104.896 18.3302 104.314 19.9661 103.731 21.6321C103.169 23.2981 102.637 24.9239 102.136 26.5096C101.654 28.0752 101.263 29.4702 100.961 30.6946C100.68 31.8989 100.52 32.8624 100.48 33.585C100.46 34.2875 100.63 34.6087 100.992 34.5484C101.754 34.4079 102.547 33.8459 103.37 32.8624C104.193 31.8588 105.056 30.5842 105.959 29.0387C106.863 27.4931 107.806 25.7569 108.79 23.83C109.773 21.883 110.807 19.8958 111.891 17.8686C112.975 15.8212 114.109 13.804 115.293 11.8169C116.477 9.82972 117.712 8.02324 118.996 6.3974C120.301 4.77157 121.666 3.40667 123.091 2.30271C124.516 1.17867 126.001 0.456081 127.547 0.134927C128.631 -0.0858634 129.504 -0.0356829 130.166 0.285468C130.849 0.606621 131.371 1.0181 131.732 1.5199C132.093 2.0217 132.334 2.5235 132.454 3.0253C132.595 3.50703 132.665 3.81815 132.665 3.95865C132.705 4.21959 132.635 4.41027 132.454 4.5307C132.294 4.65114 131.923 4.66117 131.34 4.56081C130.116 4.38016 128.912 4.58088 127.728 5.16297C126.563 5.74506 125.409 6.58809 124.265 7.69205C123.121 8.79601 121.987 10.1208 120.863 11.6663C119.739 13.2119 118.625 14.8578 117.521 16.604C116.437 18.3503 115.353 20.1568 114.269 22.0235C113.185 23.8701 112.101 25.6766 111.018 27.4429C109.954 29.1892 108.88 30.8351 107.796 32.3807C106.712 33.9061 105.628 35.2309 104.544 36.3549C103.46 37.4589 102.367 38.3019 101.263 38.884C100.179 39.4661 99.0847 39.6768 97.9808 39.5163C97.1177 39.3958 96.4653 38.9844 96.0238 38.2818C95.6022 37.5994 95.3212 36.7363 95.1807 35.6925C95.0402 34.6287 95.0302 33.4545 95.1506 32.1699C95.271 30.8652 95.4517 29.5405 95.6926 28.1956C96.2747 25.0443 97.2281 21.5217 98.5528 17.6277L102.557 10.5222C100.911 12.7101 99.3156 14.6771 97.77 16.4234C97.1076 17.1661 96.4152 17.8987 95.6926 18.6213C94.99 19.3439 94.2875 19.9962 93.585 20.5783C92.9025 21.1604 92.2402 21.6421 91.5979 22.0235C90.9556 22.3848 90.3735 22.5855 89.8516 22.6256C89.129 22.6859 88.5068 22.6357 87.9849 22.4751C87.4831 22.2945 87.0516 22.0837 86.6903 21.8428C86.349 21.5819 86.068 21.331 85.8472 21.0901C85.6465 20.8493 85.496 20.6787 85.3956 20.5783C85.2952 20.498 85.2451 20.3976 85.2451 20.2772C85.225 20.1367 85.2451 20.0062 85.3053 19.8858C85.3655 19.7654 85.4358 19.665 85.516 19.5847C85.6164 19.4844 85.7168 19.4141 85.8171 19.374C87.182 18.7718 88.5369 17.989 89.8817 17.0255C91.2265 16.0621 92.5212 15.0284 93.7656 13.9244C95.0302 12.8205 96.2245 11.7065 97.3485 10.5824C98.4725 9.43832 99.4862 8.40461 100.389 7.48129C101.293 6.55798 102.065 5.79524 102.708 5.19308C103.35 4.59092 103.822 4.25973 104.123 4.19951Z" fill="#D61111"/>
<path d="M124.249 20.7589C124.269 20.6385 124.4 20.5783 124.641 20.5783C124.902 20.5783 125.203 20.6184 125.544 20.6987C125.885 20.779 126.236 20.9095 126.598 21.0901C126.979 21.2507 127.3 21.4615 127.561 21.7224C127.842 21.9633 128.023 22.2443 128.103 22.5654C128.204 22.8665 128.153 23.1977 127.953 23.559C127.35 24.6429 126.778 25.787 126.236 26.9913C125.715 28.1956 125.273 29.2996 124.912 30.3032C124.55 31.2867 124.289 32.0996 124.129 32.742C123.968 33.3843 123.948 33.6954 124.069 33.6753C124.269 33.6352 124.53 33.4545 124.852 33.1334C125.193 32.7921 125.544 32.3907 125.905 31.929C126.267 31.4674 126.638 30.9756 127.019 30.4537C127.401 29.9118 127.752 29.42 128.073 28.9784C128.394 28.5369 128.665 28.1756 128.886 27.8946C129.107 27.5935 129.247 27.4429 129.307 27.4429C129.388 27.4429 129.508 27.463 129.669 27.5032C129.849 27.5433 130.01 27.6135 130.151 27.7139C130.311 27.8143 130.421 27.9548 130.482 28.1354C130.562 28.296 130.562 28.5068 130.482 28.7677C130.421 28.9483 130.261 29.3096 130 29.8516C129.739 30.3735 129.398 30.9756 128.976 31.6581C128.555 32.3405 128.073 33.043 127.531 33.7656C127.009 34.4681 126.447 35.0904 125.845 35.6323C125.243 36.1743 124.611 36.5858 123.948 36.8668C123.306 37.1478 122.674 37.1779 122.051 36.9571C121.69 36.8366 121.399 36.666 121.178 36.4452C120.958 36.2044 120.777 35.9635 120.636 35.7227C120.516 35.4818 120.426 35.251 120.365 35.0302C120.325 34.8094 120.295 34.6488 120.275 34.5484C120.235 34.2674 120.275 33.8861 120.396 33.4043C119.713 34.5886 119.021 35.5219 118.318 36.2044C117.636 36.8868 116.903 37.1377 116.12 36.9571C115.357 36.7764 114.785 36.5356 114.404 36.2345C114.023 35.9133 113.762 35.5621 113.621 35.1807C113.461 34.7993 113.39 34.3979 113.41 33.9764C113.41 33.5549 113.431 33.1534 113.471 32.7721C113.511 31.9893 113.631 31.1061 113.832 30.1226C114.033 29.1189 114.304 28.1254 114.645 27.1419C115.006 26.1583 115.428 25.2149 115.909 24.3117C116.411 23.4085 116.983 22.6457 117.626 22.0235C118.268 21.4013 118.98 20.9597 119.763 20.6987C120.566 20.4378 121.439 20.4478 122.383 20.7288C122.844 20.8894 123.165 21.1403 123.346 21.4815C123.527 21.8027 123.637 22.164 123.677 22.5654L124.249 20.7589ZM122.413 23.1074C122.132 23.0472 121.791 23.2579 121.389 23.7396C121.008 24.2214 120.616 24.8336 120.215 25.5762C119.813 26.3189 119.432 27.1419 119.071 28.0451C118.73 28.9283 118.459 29.7412 118.258 30.4838C118.057 31.2265 117.957 31.8287 117.957 32.2903C117.977 32.752 118.147 32.9427 118.469 32.8624C118.89 32.762 119.302 32.4609 119.703 31.9591C120.125 31.4573 120.516 30.8552 120.877 30.1527C121.259 29.4501 121.59 28.6974 121.871 27.8946C122.172 27.0917 122.403 26.349 122.563 25.6666C122.724 24.9841 122.794 24.402 122.774 23.9203C122.774 23.4386 122.654 23.1676 122.413 23.1074Z" fill="#D61111"/>
<path d="M136.046 19.1933C136.428 19.1933 136.839 19.2435 137.281 19.3439C137.722 19.4442 138.124 19.6249 138.485 19.8858C138.866 20.1267 139.157 20.4779 139.358 20.9396C139.579 21.3812 139.649 21.9532 139.569 22.6558C139.549 22.8565 139.499 23.1074 139.418 23.4085C139.338 23.6895 139.218 24.0006 139.057 24.3418C138.917 24.663 138.726 24.9841 138.485 25.3053C138.264 25.6264 137.983 25.9074 137.642 26.1483C137.301 26.4092 136.929 26.5397 136.528 26.5397C136.127 26.5397 135.765 26.4694 135.444 26.3289C135.143 26.1684 134.932 25.9576 134.812 25.6967C134.691 25.4357 134.742 25.1547 134.962 24.8536C134.982 24.8135 135.053 24.7131 135.173 24.5526C135.314 24.3719 135.454 24.1812 135.595 23.9805C135.735 23.7798 135.866 23.5891 135.986 23.4085C136.107 23.2077 136.177 23.0572 136.197 22.9568C136.257 22.6156 136.096 22.435 135.715 22.4149C135.354 22.3948 134.932 22.5052 134.451 22.7461C133.989 22.9669 133.557 23.3181 133.156 23.7999C132.775 24.2615 132.584 24.8135 132.584 25.4558C132.604 25.7569 132.815 26.1081 133.216 26.5096C133.638 26.891 134.109 27.3325 134.631 27.8343C135.534 27.3526 136.418 26.9411 137.281 26.5999C138.144 26.2386 138.917 25.9375 139.599 25.6967C140.302 25.4558 140.874 25.2752 141.315 25.1547C141.757 25.0343 142.008 24.954 142.068 24.9139C142.269 24.8336 142.469 24.8637 142.67 25.0042C142.891 25.1246 143.061 25.2852 143.182 25.4859C143.322 25.6666 143.393 25.8572 143.393 26.058C143.413 26.2386 143.332 26.349 143.152 26.3892C142.931 26.4293 142.499 26.5397 141.857 26.7203C141.215 26.8809 140.452 27.1218 139.569 27.4429C138.706 27.7641 137.772 28.1655 136.769 28.6473C135.765 29.1089 134.812 29.6709 133.909 30.3333C134.069 30.2731 134.26 30.1928 134.481 30.0924C134.722 29.9921 134.952 29.9018 135.173 29.8215C135.414 29.7211 135.615 29.6408 135.775 29.5806C135.956 29.5003 136.076 29.4501 136.137 29.4301C136.538 29.9118 136.839 30.4036 137.04 30.9054C137.241 31.3871 137.311 31.9491 137.251 32.5914C137.13 33.7556 136.889 34.7492 136.528 35.5721C136.167 36.375 135.745 37.0474 135.263 37.5893C134.782 38.1514 134.26 38.5829 133.698 38.884C133.156 39.2051 132.644 39.446 132.162 39.6066C131.681 39.7672 131.249 39.8675 130.868 39.9077C130.506 39.9679 130.266 39.998 130.145 39.998C129.402 40.0181 128.8 39.8876 128.339 39.6066C127.897 39.3456 127.556 39.0145 127.315 38.613C127.074 38.2116 126.934 37.78 126.893 37.3184C126.853 36.8768 126.863 36.4854 126.924 36.1442C127.164 34.9198 127.656 33.8158 128.399 32.8323C129.142 31.8287 130.025 30.9254 131.048 30.1226C130.747 29.9218 130.456 29.701 130.175 29.4602C129.894 29.2193 129.643 28.9483 129.423 28.6473C129.222 28.3261 129.061 27.9548 128.941 27.5333C128.84 27.0917 128.82 26.5798 128.881 25.9977C128.961 24.8938 129.282 23.9203 129.844 23.0773C130.426 22.2142 131.089 21.5016 131.831 20.9396C132.594 20.3575 133.357 19.926 134.119 19.6449C134.902 19.3439 135.544 19.1933 136.046 19.1933ZM133.035 34.157C133.136 33.5147 133.136 32.9828 133.035 32.5613C132.935 32.1398 132.765 31.7685 132.524 31.4473C132.002 31.929 131.53 32.4609 131.109 33.043C130.707 33.605 130.366 34.2072 130.085 34.8495C129.784 35.5922 129.744 36.094 129.964 36.3549C130.205 36.6159 130.526 36.6961 130.928 36.5958C131.349 36.4754 131.771 36.2044 132.192 35.7829C132.634 35.3413 132.915 34.7993 133.035 34.157Z" fill="#D61111"/>
<path d="M141.975 16.4234C142.457 16.5037 142.939 16.594 143.421 16.6944C143.902 16.7746 144.394 16.865 144.896 16.9653C145.478 15.6807 145.93 14.6269 146.251 13.804C146.592 12.961 146.783 12.3387 146.823 11.9373C146.843 11.7566 147.044 11.6864 147.425 11.7265C147.806 11.7466 148.198 11.8971 148.599 12.1781C149.001 12.4592 149.322 12.8807 149.563 13.4427C149.824 14.0047 149.844 14.7173 149.623 15.5804C149.502 16.0621 149.402 16.4435 149.322 16.7245C149.242 16.9854 149.141 17.2564 149.021 17.5374C150.285 17.6377 151.53 17.5976 152.754 17.417C153.979 17.2162 155.153 16.7445 156.277 16.0019C156.477 15.8814 156.618 15.8413 156.698 15.8814C156.799 15.9015 156.849 15.9718 156.849 16.0922C156.869 16.2126 156.859 16.3531 156.819 16.5137C156.779 16.6542 156.728 16.7746 156.668 16.875C156.006 17.8786 155.283 18.5611 154.5 18.9224C153.718 19.2837 152.895 19.4743 152.032 19.4944C151.168 19.4944 150.265 19.394 149.322 19.1933C148.398 18.9725 147.465 18.7819 146.522 18.6213C146.803 18.7216 147.124 18.832 147.485 18.9525C147.867 19.0528 148.117 19.1231 148.238 19.1632C147.736 20.1267 147.174 21.2708 146.552 22.5955C145.93 23.9002 145.297 25.235 144.655 26.5999C144.474 27.0214 144.254 27.5734 143.993 28.2559C143.752 28.9383 143.531 29.6308 143.33 30.3333C143.13 31.0358 142.969 31.6781 142.849 32.2602C142.748 32.8423 142.748 33.2438 142.849 33.4645C143.049 33.9463 143.31 34.1169 143.631 33.9764C143.973 33.8359 144.344 33.5147 144.745 33.0129C145.147 32.5111 145.548 31.909 145.95 31.2064C146.351 30.4838 146.733 29.8014 147.094 29.1591C147.455 28.4967 147.756 27.9347 147.997 27.473C148.258 27.0114 148.429 26.7906 148.509 26.8107C148.79 26.8709 149.001 26.9712 149.141 27.1117C149.282 27.2322 149.372 27.3626 149.412 27.5032C149.452 27.6236 149.462 27.744 149.442 27.8644C149.442 27.9648 149.442 28.015 149.442 28.015C149.422 28.0351 149.312 28.306 149.111 28.8279C148.91 29.3297 148.629 29.9419 148.268 30.6645C147.907 31.3871 147.475 32.1599 146.973 32.9828C146.472 33.8058 145.9 34.5484 145.257 35.2108C144.635 35.8531 143.943 36.365 143.18 36.7463C142.437 37.1277 141.644 37.2381 140.801 37.0775C140.279 36.9772 139.878 36.7764 139.597 36.4753C139.356 36.2546 139.195 35.7728 139.115 35.0302C139.055 34.2875 139.075 33.4043 139.175 32.3807C139.276 31.357 139.466 30.2631 139.747 29.0989C140.049 27.9146 140.45 26.7605 140.952 25.6364L144.234 18.4406C143.491 18.4808 142.758 18.6112 142.036 18.832C141.333 19.0528 140.641 19.4543 139.958 20.0364C139.838 20.1367 139.727 20.207 139.627 20.2471C139.547 20.2672 139.476 20.2672 139.416 20.2471C139.356 20.227 139.306 20.207 139.266 20.1869C139.246 20.1467 139.236 20.1267 139.236 20.1267C138.955 19.8858 138.814 19.5346 138.814 19.0729C138.794 18.6112 138.904 18.1697 139.145 17.7481C139.386 17.3266 139.737 16.9754 140.199 16.6944C140.681 16.4134 141.273 16.323 141.975 16.4234Z" fill="#D61111"/>
<path d="M151.941 26.5999C151.781 26.9411 151.63 27.2924 151.49 27.6537C151.349 27.9949 151.219 28.3361 151.098 28.6774C151.379 28.1956 151.7 27.6437 152.062 27.0214C152.443 26.3992 152.844 25.7669 153.266 25.1246C153.687 24.4622 154.109 23.83 154.531 23.2278C154.952 22.6056 155.353 22.0536 155.735 21.5719C156.136 21.0901 156.498 20.7088 156.819 20.4278C157.14 20.1467 157.401 20.0163 157.602 20.0364C157.722 20.0564 157.963 20.1267 158.324 20.2471C158.705 20.3675 159.077 20.5181 159.438 20.6987C159.799 20.8593 160.09 21.05 160.311 21.2708C160.552 21.4715 160.602 21.6722 160.462 21.8729C160.361 21.9934 160.201 22.2342 159.98 22.5955C159.759 22.9368 159.528 23.3482 159.288 23.83C159.047 24.2916 158.816 24.7934 158.595 25.3354C158.374 25.8773 158.214 26.4092 158.113 26.9311C158.013 27.453 158.003 27.9447 158.083 28.4064C158.164 28.848 158.374 29.1992 158.716 29.4602C158.816 29.5405 158.836 29.6408 158.776 29.7613C158.716 29.8817 158.605 30.0021 158.445 30.1226C158.284 30.243 158.073 30.3735 157.812 30.514C157.571 30.6344 157.321 30.7448 157.06 30.8451C156.618 31.0258 156.197 31.1563 155.795 31.2365C155.394 31.3168 155.123 31.3068 154.982 31.2064C154.46 30.8251 154.149 30.3634 154.049 29.8215C153.968 29.2795 153.979 28.7476 154.079 28.2257C154.199 27.7039 154.36 27.2522 154.561 26.8709C154.761 26.4694 154.902 26.2185 154.982 26.1182C154.581 26.4594 154.139 26.8709 153.657 27.3526C153.176 27.8343 152.704 28.3763 152.242 28.9784C151.801 29.5806 151.379 30.2229 150.978 30.9054C150.596 31.5677 150.305 32.2502 150.105 32.9527C149.924 34.157 149.834 35.1406 149.834 35.9033C149.854 36.646 149.854 37.0273 149.834 37.0474C149.773 37.1277 149.633 37.1779 149.412 37.1979C149.191 37.218 148.94 37.1979 148.659 37.1377C148.378 37.0976 148.097 37.0273 147.816 36.927C147.535 36.8065 147.305 36.656 147.124 36.4753C146.903 36.2546 146.722 35.8029 146.582 35.1205C146.441 34.438 146.381 33.6251 146.401 32.6817C146.401 31.7183 146.492 30.6745 146.672 29.5505C146.873 28.4265 147.194 27.3225 147.636 26.2386C148.057 25.2149 148.429 24.1712 148.75 23.1074C149.071 22.0235 149.231 20.9898 149.231 20.0062C149.231 19.7252 149.302 19.5546 149.442 19.4944C149.583 19.4342 149.773 19.4342 150.014 19.4944C150.115 19.5346 150.335 19.6148 150.677 19.7353C151.018 19.8557 151.369 20.0364 151.73 20.2772C152.092 20.5181 152.413 20.8292 152.694 21.2106C152.995 21.5719 153.146 22.0134 153.146 22.5353C153.146 22.9368 153.045 23.4586 152.844 24.1009C152.664 24.7432 152.363 25.5762 151.941 26.5999Z" fill="#D61111"/>
<path d="M169.882 20.7589C169.902 20.6385 170.032 20.5783 170.273 20.5783C170.534 20.5783 170.835 20.6184 171.176 20.6987C171.518 20.779 171.869 20.9095 172.23 21.0901C172.612 21.2507 172.933 21.4615 173.194 21.7224C173.475 21.9633 173.655 22.2443 173.736 22.5654C173.836 22.8665 173.786 23.1977 173.585 23.559C172.983 24.6429 172.411 25.787 171.869 26.9913C171.347 28.1956 170.906 29.2996 170.544 30.3032C170.183 31.2867 169.922 32.0996 169.761 32.742C169.601 33.3843 169.581 33.6954 169.701 33.6753C169.902 33.6352 170.163 33.4545 170.484 33.1334C170.825 32.7921 171.176 32.3907 171.538 31.929C171.899 31.4674 172.27 30.9756 172.652 30.4537C173.033 29.9118 173.384 29.42 173.706 28.9784C174.027 28.5369 174.298 28.1756 174.518 27.8946C174.739 27.5935 174.88 27.4429 174.94 27.4429C175.02 27.4429 175.141 27.463 175.301 27.5032C175.482 27.5433 175.643 27.6135 175.783 27.7139C175.944 27.8143 176.054 27.9548 176.114 28.1354C176.195 28.296 176.195 28.5068 176.114 28.7677C176.054 28.9483 175.893 29.3096 175.632 29.8516C175.372 30.3735 175.03 30.9756 174.609 31.6581C174.187 32.3405 173.706 33.043 173.164 33.7656C172.642 34.4681 172.08 35.0904 171.478 35.6323C170.875 36.1743 170.243 36.5858 169.581 36.8668C168.938 37.1478 168.306 37.1779 167.684 36.9571C167.323 36.8366 167.032 36.666 166.811 36.4452C166.59 36.2044 166.409 35.9635 166.269 35.7227C166.148 35.4818 166.058 35.251 165.998 35.0302C165.958 34.8094 165.928 34.6488 165.908 34.5484C165.867 34.2674 165.908 33.8861 166.028 33.4043C165.346 34.5886 164.653 35.5219 163.951 36.2044C163.268 36.8868 162.535 37.1377 161.753 36.9571C160.99 36.7764 160.418 36.5356 160.037 36.2345C159.655 35.9133 159.394 35.5621 159.254 35.1807C159.093 34.7993 159.023 34.3979 159.043 33.9764C159.043 33.5549 159.063 33.1534 159.103 32.7721C159.143 31.9893 159.264 31.1061 159.464 30.1226C159.665 29.1189 159.936 28.1254 160.277 27.1419C160.639 26.1583 161.06 25.2149 161.542 24.3117C162.044 23.4085 162.616 22.6457 163.258 22.0235C163.9 21.4013 164.613 20.9597 165.396 20.6987C166.199 20.4378 167.072 20.4478 168.015 20.7288C168.477 20.8894 168.798 21.1403 168.979 21.4815C169.159 21.8027 169.27 22.164 169.31 22.5654L169.882 20.7589ZM168.045 23.1074C167.764 23.0472 167.423 23.2579 167.022 23.7396C166.64 24.2214 166.249 24.8336 165.847 25.5762C165.446 26.3189 165.065 27.1419 164.703 28.0451C164.362 28.9283 164.091 29.7412 163.89 30.4838C163.69 31.2265 163.589 31.8287 163.589 32.2903C163.609 32.752 163.78 32.9427 164.101 32.8624C164.523 32.762 164.934 32.4609 165.336 31.9591C165.757 31.4573 166.148 30.8552 166.51 30.1527C166.891 29.4501 167.222 28.6974 167.503 27.8946C167.804 27.0917 168.035 26.349 168.196 25.6666C168.356 24.9841 168.427 24.402 168.407 23.9203C168.407 23.4386 168.286 23.1676 168.045 23.1074Z" fill="#D61111"/>
</g>
<defs>
<filter id="filter0_d" x="0" y="0" width="177.174" height="42" filterUnits="userSpaceOnUse" color-interpolation-filters="sRGB">
<feFlood flood-opacity="0" result="BackgroundImageFix"/>
<feColorMatrix in="SourceAlpha" type="matrix" values="0 0 0 0 0 0 0 0 0 0 0 0 0 0 0 0 0 0 127 0"/>
<feOffset dx="1" dy="2"/>
<feColorMatrix type="matrix" values="0 0 0 0 0.929167 0 0 0 0 0.800942 0 0 0 0 0.12776 0 0 0 1 0"/>
<feBlend mode="normal" in2="BackgroundImageFix" result="effect1_dropShadow"/>
<feBlend mode="normal" in="SourceGraphic" in2="effect1_dropShadow" result="shape"/>
</filter>
</defs>
</svg>
